<?xml version="1.0" encoding="UTF-8" standalone="no"?>
<!DOCTYPE svg PUBLIC "-//W3C//DTD SVG 1.1//EN" "http://www.w3.org/Graphics/SVG/1.1/DTD/svg11.dtd">
<svg xmlns="http://www.w3.org/2000/svg" xmlns:xlink="http://www.w3.org/1999/xlink" version="1.1" width="1653.5444pt" height="2338.5833pt" viewBox="0 0 1653.5444 2338.5833">
<g enable-background="new">
<symbol id="font_0_1e">
<path d="M .549 .25800003 L .52400007 .25800003 C .513 .156 .499 .031000002 .323 .031000002 L .24100003 .031000002 C .194 .031000002 .192 .038000004 .192 .071 L .192 .60400006 C .192 .638 .192 .652 .28700004 .652 L .32000003 .652 L .32000003 .683 C .284 .68 .19300002 .68 .15200001 .68 C .11300001 .68 .035000005 .68 0 .683 L 0 .652 L .024000004 .652 C .101 .652 .10300001 .64100006 .10300001 .605 L .10300001 .078 C .10300001 .042000005 .101 .031000002 .024000004 .031000002 L 0 .031000002 L 0 0 L .521 0 L .549 .25800003 Z "/>
</symbol>
<symbol id="font_0_30">
<path d="M .08400001 .263 C .09 .41200004 .17400001 .43700005 .20800002 .43700005 C .31100003 .43700005 .321 .30200003 .321 .263 L .08400001 .263 M .083000008 .24200002 L .36200003 .24200002 C .38400004 .24200002 .38700003 .24200002 .38700003 .263 C .38700003 .36200003 .33300004 .45900003 .20800002 .45900003 C .09200001 .45900003 0 .35600005 0 .23100002 C 0 .097 .105000007 0 .22000002 0 C .342 0 .38700003 .111 .38700003 .13000001 C .38700003 .14000002 .379 .14200002 .374 .14200002 C .365 .14200002 .36300005 .136 .36100004 .128 C .326 .025000003 .236 .025000003 .22600001 .025000003 C .17600002 .025000003 .136 .055000005 .113000009 .092 C .083000008 .14000002 .083000008 .20600002 .083000008 .24200002 Z "/>
</symbol>
<symbol id="font_0_3f">
<path d="M .15400002 .411 L .29700003 .411 L .29700003 .44200004 L .15400002 .44200004 L .15400002 .626 L .12900001 .626 C .12799999 .544 .098000008 .43700005 0 .43300004 L 0 .411 L .085 .411 L .085 .135 C .085 .012000001 .178 0 .21400002 0 C .28500004 0 .31300003 .071 .31300003 .135 L .31300003 .19200002 L .28800003 .19200002 L .28800003 .13700001 C .28800003 .063 .25800003 .025000003 .22100002 .025000003 C .15400002 .025000003 .15400002 .116000007 .15400002 .13300002 L .15400002 .411 Z "/>
</symbol>
<symbol id="font_0_3">
<path d="M .12000001 .19400004 C .12000001 .25400005 .09600001 .299 .05300001 .299 C .018 .299 0 .27200005 0 .24600002 C 0 .22 .017000005 .19299999 .05300001 .19299999 C .07300001 .19299999 .087000008 .20300004 .093 .20900002 C .094000007 .211 .095000009 .21200004 .09600001 .21200004 C .09800001 .21200004 .09800001 .19800005 .09800001 .19400004 C .09800001 .16200003 .091 .09 .028000005 .027999998 C .016000003 .016000003 .016000003 .013999999 .016000003 .011000007 C .016000003 .004000008 .021000006 0 .026 0 C .037 0 .12000001 .076000008 .12000001 .19400004 Z "/>
</symbol>
<symbol id="font_0_3e">
<path d="M .17500001 .20500002 C .197 .20100002 .279 .18500002 .279 .113000009 C .279 .062000004 .24400002 .022000002 .16600001 .022000002 C .082 .022000002 .046000005 .079 .027000003 .16400002 C .024000004 .17700002 .023000002 .18100001 .013000004 .18100001 C 0 .18100001 0 .17400001 0 .15600002 L 0 .024 C 0 .0070000009 0 0 .011000004 0 C .016000003 0 .017 .0010000002 .036000007 .020000002 C .038000004 .022000002 .038000004 .024 .056 .043 C .1 .0010000002 .14500001 0 .16600001 0 C .28100003 0 .32700003 .067 .32700003 .13900002 C .32700003 .19200002 .29700003 .22200002 .28500004 .23400001 C .25200004 .26600004 .213 .27400003 .171 .28200004 C .115 .293 .048 .30600003 .048 .36400003 C .048 .39900003 .07400001 .44000004 .16 .44000004 C .27 .44000004 .27500005 .35000003 .277 .31900005 C .27800004 .31000004 .28700004 .31000004 .28900004 .31000004 C .30200003 .31000004 .30200003 .31500004 .30200003 .33400003 L .30200003 .43500004 C .30200003 .45200003 .30200003 .45900003 .291 .45900003 C .286 .45900003 .284 .45900003 .27100004 .44700004 C .26800005 .44300003 .25800003 .43400003 .254 .43100003 C .21600002 .45900003 .17500001 .45900003 .16 .45900003 C .038000004 .45900003 0 .39200003 0 .33600004 C 0 .30100004 .016000003 .27300004 .043000007 .25100003 C .075 .22500003 .10300001 .21900001 .17500001 .20500002 Z "/>
</symbol>
<symbol id="font_0_2">
<path d="M .303 .4 C .349 .4 .356 .38700003 .356 .34600003 L .356 .076000008 C .356 .031000002 .345 .031000002 .278 .031000002 L .278 0 C .31100003 .001 .36400003 .003 .389 .003 C .414 .003 .463 .001 .5 0 L .5 .031000002 C .433 .031000002 .42200003 .031000002 .42200003 .076000008 L .42200003 .44300003 L .296 .43400003 C .28 .43300004 .279 .432 .278 .432 C .276 .43100003 .27400003 .43100003 .26 .43100003 L .14200002 .43100003 L .14200002 .544 C .14200002 .643 .22800003 .683 .29 .683 C .32 .683 .356 .67300006 .37600003 .65000006 C .335 .648 .329 .62 .329 .60400006 C .329 .57100006 .35500003 .558 .374 .558 C .397 .558 .42000003 .574 .42000003 .60400006 C .42000003 .66300007 .365 .70500007 .291 .70500007 C .19800002 .70500007 .079 .65400007 .079 .545 L .079 .43100003 L 0 .43100003 L 0 .4 L .079 .4 L .079 .076000008 C .079 .031000002 .068 .031000002 .0010000002 .031000002 L .0010000002 0 C .034 .001 .087000008 .003 .11200001 .003 C .13700001 .003 .18600002 .001 .223 0 L .223 .031000002 C .15600002 .031000002 .14500001 .031000002 .14500001 .076000008 L .14500001 .4 L .303 .4 Z "/>
</symbol>
<symbol id="font_0_39">
<path d="M .07800001 .344 L .07800001 .076000008 C .07800001 .031000002 .067 .031000002 0 .031000002 L 0 0 C .035 .001 .08600001 .003 .113000009 .003 C .139 .003 .191 .001 .225 0 L .225 .031000002 C .158 .031000002 .147 .031000002 .147 .076000008 L .147 .26000003 C .147 .36400003 .218 .42000003 .282 .42000003 C .345 .42000003 .356 .36600004 .356 .30900003 L .356 .076000008 C .356 .031000002 .345 .031000002 .278 .031000002 L .278 0 C .31300003 .001 .36400003 .003 .391 .003 C .41700004 .003 .46900005 .001 .503 0 L .503 .031000002 C .451 .031000002 .42600004 .031000002 .425 .061000006 L .425 .252 C .425 .33800004 .425 .36900003 .39400003 .40500004 C .38000003 .42200003 .347 .44200004 .289 .44200004 C .216 .44200004 .169 .39900003 .141 .337 L .141 .44200004 L 0 .43100003 L 0 .4 C .07000001 .4 .07800001 .393 .07800001 .344 Z "/>
</symbol>
<symbol id="font_0_2f">
<path d="M .34600003 .06600001 L .34600003 0 L .493 .011000001 L .493 .042000005 C .423 .042000005 .41500003 .049000004 .41500003 .098000008 L .41500003 .705 L .271 .694 L .271 .663 C .34100003 .663 .349 .656 .349 .607 L .349 .39100004 C .32 .42700003 .277 .45300005 .22299999 .45300005 C .10500001 .45300005 0 .35500003 0 .22600001 C 0 .09900001 .098 0 .21200001 0 C .276 0 .321 .034 .34600003 .06600001 M .34600003 .33400003 L .34600003 .12900001 C .34600003 .111 .34600003 .109000008 .335 .092 C .305 .044 .26 .022000002 .21700001 .022000002 C .17200002 .022000002 .136 .048 .11200001 .086 C .086 .127 .083000008 .18400002 .083000008 .22500003 C .083000008 .26200003 .085 .32200004 .114 .367 C .13500002 .39800004 .17300001 .43100003 .227 .43100003 C .262 .43100003 .30400003 .41600005 .335 .37100003 C .34600003 .35400004 .34600003 .35200004 .34600003 .33400003 Z "/>
</symbol>
<symbol id="font_0_1f">
<path d="M .20400001 .661 C .19500001 .683 .19200002 .683 .16900002 .683 L 0 .683 L 0 .652 L .024000004 .652 C .10100001 .652 .103 .64100006 .103 .605 L .103 .105000007 C .103 .078 .103 .031000002 0 .031000002 L 0 0 C .035000005 .001 .08400001 .003 .11700001 .003 C .15 .003 .19900002 .001 .23400003 0 L .23400003 .031000002 C .13100001 .031000002 .13100001 .078 .13100001 .105000007 L .13100001 .64400008 L .13200002 .64400008 L .37300004 .022000002 C .37800003 .009000001 .38300003 0 .393 0 C .404 0 .40700004 .008 .411 .019000002 L .657 .652 L .65800008 .652 L .65800008 .078 C .65800008 .042000005 .656 .031000002 .57900008 .031000002 L .555 .031000002 L .555 0 C .592 .003 .66 .003 .69900009 .003 C .73800006 .003 .80500009 .003 .84200009 0 L .84200009 .031000002 L .818 .031000002 C .74100008 .031000002 .739 .042000005 .739 .078 L .739 .605 C .739 .64100006 .74100008 .652 .818 .652 L .84200009 .652 L .84200009 .683 L .67300006 .683 C .647 .683 .647 .68200007 .64000007 .66400006 L .42100004 .101 L .20400001 .661 Z "/>
</symbol>
<use xlink:href="#font_0_1e" transform="matrix(30.303053,0,0,-30.303053,296.08055,311.07496)"/>
<use xlink:href="#font_0_30" transform="matrix(30.303053,0,0,-30.303053,314.8684,311.4083)"/>
<use xlink:href="#font_0_3f" transform="matrix(30.303053,0,0,-30.303053,328.05024,311.4083)"/>
<use xlink:href="#font_0_3" transform="matrix(30.303053,0,0,-30.303053,341.86845,299.10527)"/>
<use xlink:href="#font_0_3e" transform="matrix(30.303053,0,0,-30.303053,348.6866,311.4083)"/>
<use xlink:href="#font_0_2" transform="matrix(30.303053,0,0,-30.303053,370.53517,311.07496)"/>
<use xlink:href="#font_0_39" transform="matrix(30.303053,0,0,-30.303053,387.53517,311.07496)"/>
<use xlink:href="#font_0_2f" transform="matrix(30.303053,0,0,-30.303053,404.44429,311.4083)"/>
<use xlink:href="#font_0_1f" transform="matrix(30.303053,0,0,-30.303053,431.5049,311.07496)"/>
<symbol id="font_1_c">
<path d="M .88400009 .606 C .89300009 .642 .89500007 .652 .9700001 .652 C .9930001 .652 1.002 .652 1.002 .67200008 C 1.002 .683 .99200007 .683 .9750001 .683 L .84300008 .683 C .81700006 .683 .81600007 .683 .804 .66400006 L .43900005 .094000007 L .36100004 .66 C .358 .683 .35600005 .683 .33 .683 L .19300002 .683 C .174 .683 .16300002 .683 .16300002 .66400006 C .16300002 .652 .17200002 .652 .192 .652 C .20500002 .652 .22300002 .651 .23500002 .65000006 C .25100003 .648 .25700004 .64500007 .25700004 .634 C .25700004 .63000008 .256 .62700006 .25300003 .615 L .12600002 .106000009 C .116000007 .066 .099 .034 .018 .031000002 C .013 .031000002 0 .030000002 0 .012 C 0 .003 .0059999974 0 .013999999 0 C .046000005 0 .081 .003 .114 .003 C .148 .003 .18400002 0 .21700001 0 C .222 0 .23500002 0 .23500002 .020000002 C .23500002 .031000002 .224 .031000002 .21700001 .031000002 C .16 .032 .14900002 .052 .14900002 .075 C .14900002 .082 .15 .087000008 .153 .098000008 L .28900004 .643 L .29000003 .643 L .37600003 .023000002 C .37800003 .011000001 .37900005 0 .39100004 0 C .40200005 0 .40800003 .011000001 .41300003 .018000002 L .81700006 .651 L .818 .651 L .675 .078 C .665 .039 .66300007 .031000002 .58400008 .031000002 C .56700006 .031000002 .55600008 .031000002 .55600008 .012 C .55600008 0 .568 0 .57100006 0 C .59900006 0 .66700008 .003 .69500008 .003 C .73600009 .003 .77900007 0 .82000008 0 C .82600006 0 .83900007 0 .83900007 .020000002 C .83900007 .031000002 .83000007 .031000002 .81100007 .031000002 C .77400007 .031000002 .74600008 .031000002 .74600008 .049000004 C .74600008 .053000004 .74600008 .055000005 .75100007 .07300001 L .88400009 .606 Z "/>
</symbol>
<use xlink:href="#font_1_c" transform="matrix(30.303053,0,0,-30.303053,670.50326,348.71107)"/>
<symbol id="font_2_1">
<path d="M .42600004 .605 C .43500004 .64100006 .43600003 .643 .47700004 .643 L .55300006 .643 C .657 .643 .669 .61 .669 .56 C .669 .535 .663 .492 .662 .48700003 C .66 .476 .65900006 .467 .65900006 .46500004 C .65900006 .45200003 .668 .44900004 .674 .44900004 C .685 .44900004 .689 .455 .69200006 .47400005 L .71900007 .66200008 C .71900007 .67600008 .707 .67600008 .689 .67600008 L .1 .67600008 C .075 .67600008 .07300001 .67600008 .06600001 .65500006 L .005000001 .48200003 C .0030000006 .47700004 0 .469 0 .46300004 C 0 .455 .0069999995 .44900004 .015000001 .44900004 C .026 .44900004 .028 .45400004 .034 .47100003 C .091000009 .63100007 .12000001 .643 .272 .643 L .31100003 .643 C .34100003 .643 .34200005 .642 .34200005 .634 C .34200005 .63100007 .33800004 .611 .337 .60700008 L .20500002 .082 C .19600001 .044000005 .19300002 .033 .089 .033 C .057000005 .033 .047000007 .033 .047000007 .014 C .047000007 .013 .047000007 0 .064 0 C .091000009 0 .16 .003 .187 .003 L .272 .003 C .3 .003 .37000004 0 .39800004 0 C .40600003 0 .42100004 0 .42100004 .019000002 C .42100004 .033 .41000004 .033 .38300003 .033 C .35900004 .033 .351 .033 .32500003 .035 C .293 .038000004 .28900004 .042000005 .28900004 .055000005 C .28900004 .059000005 .29000003 .063 .293 .07300001 L .42600004 .605 Z "/>
</symbol>
<use xlink:href="#font_2_1" transform="matrix(22.139166,0,0,-22.139166,702.5089,336.19996)"/>
<use xlink:href="#font_1_c" transform="matrix(30.303053,0,0,-30.303053,721.5504,348.71107)"/>
<symbol id="font_0_16">
<path d="M .63100007 .19400002 C .646 .19400002 .665 .19400002 .665 .214 C .665 .23400001 .646 .23400001 .632 .23400001 L .033 .23400001 C .019000002 .23400001 0 .23400001 0 .214 C 0 .19400002 .019000002 .19400002 .034 .19400002 L .63100007 .19400002 M .632 0 C .646 0 .665 0 .665 .02000001 C .665 .040000008 .646 .040000008 .63100007 .040000008 L .034 .040000008 C .019000002 .040000008 0 .040000008 0 .02000001 C 0 0 .019000002 0 .033 0 L .632 0 Z "/>
</symbol>
<use xlink:href="#font_0_16" transform="matrix(30.303053,0,0,-30.303053,763.0941,344.68077)"/>
<symbol id="font_1_6">
<path d="M .14400001 .115 C .10400002 .048 .065 .034 .021000002 .031000002 C .009000003 .030000002 0 .030000002 0 .011000001 C 0 .0050000005 .0050000029 0 .013 0 C .040000004 0 .07100001 .003 .09900001 .003 C .13200002 .003 .16700001 0 .19900002 0 C .20500002 0 .21800003 0 .21800003 .019000002 C .21800003 .030000002 .20900002 .031000002 .20200002 .031000002 C .17900002 .033 .15500002 .041 .15500002 .066 C .15500002 .078 .16100002 .089 .16900002 .10300001 L .245 .231 L .49600003 .231 C .49800007 .21000001 .512 .074 .512 .064 C .512 .034 .46000005 .031000002 .44000004 .031000002 C .42600004 .031000002 .41600005 .031000002 .41600005 .011000001 C .41600005 0 .42800004 0 .43000005 0 C .47100006 0 .514 .003 .555 .003 C .58 .003 .643 0 .668 0 C .674 0 .686 0 .686 .020000002 C .686 .031000002 .676 .031000002 .663 .031000002 C .601 .031000002 .601 .038000004 .598 .067 L .537 .69200006 C .535 .712 .535 .716 .518 .716 C .502 .716 .49800007 .70900008 .492 .69900009 L .14400001 .115 M .26400004 .26200003 L .46100004 .592 L .493 .26200003 L .26400004 .26200003 Z "/>
</symbol>
<symbol id="font_1_3">
<path d="M .117000009 .194 C .117000009 .26 .092 .29900003 .05300001 .29900003 C .020000004 .29900003 0 .274 0 .246 C 0 .21900001 .020000004 .193 .05300001 .193 C .065000008 .193 .078 .197 .08800001 .206 C .091 .208 .092 .209 .093 .209 C .094000007 .209 .095000009 .208 .095000009 .194 C .095000009 .12 .06000001 .060000004 .027000003 .026999996 C .016000003 .016000003 .016000003 .013999999 .016000003 .0109999929 C .016000003 .003999993 .021000006 0 .026 0 C .037 0 .117000009 .077 .117000009 .194 Z "/>
</symbol>
<use xlink:href="#font_1_6" transform="matrix(30.303053,0,0,-30.303053,794.444,348.71107)"/>
<use xlink:href="#font_1_3" transform="matrix(30.303053,0,0,-30.303053,818.7167,354.55955)"/>
<use xlink:href="#font_1_6" transform="matrix(30.303053,0,0,-30.303053,830.656,348.71107)"/>
<use xlink:href="#font_0_16" transform="matrix(30.303053,0,0,-30.303053,862.4192,344.68077)"/>
<symbol id="font_1_e">
<path d="M .263 .316 L .43300004 .316 C .575 .316 .714 .42000003 .714 .532 C .714 .609 .648 .683 .517 .683 L .193 .683 C .17400001 .683 .163 .683 .163 .66400006 C .163 .652 .172 .652 .192 .652 C .205 .652 .223 .651 .235 .65000006 C .25100003 .648 .25700004 .64500007 .25700004 .634 C .25700004 .63000008 .256 .62700006 .25300003 .615 L .119 .078 C .109 .039 .10699999 .031000002 .028 .031000002 C .011 .031000002 0 .031000002 0 .012 C 0 0 .011999998 0 .015000001 0 C .043 0 .11400001 .003 .142 .003 C .163 .003 .185 .002 .206 .002 C .228 .002 .25000004 0 .27100004 0 C .27800004 0 .29100005 0 .29100005 .020000002 C .29100005 .031000002 .28200004 .031000002 .263 .031000002 C .226 .031000002 .198 .031000002 .198 .049000004 C .198 .055000005 .2 .060000004 .201 .066 L .263 .316 M .33500005 .614 C .344 .64900007 .34600003 .652 .38900004 .652 L .48500005 .652 C .568 .652 .621 .625 .621 .55600008 C .621 .517 .601 .43100003 .56200006 .395 C .512 .35000003 .45200003 .342 .40800003 .342 L .26700003 .342 L .33500005 .614 Z "/>
</symbol>
<symbol id="font_1_8">
<path d="M .119 .078 C .109 .039 .10699999 .031000002 .028 .031000002 C .011 .031000002 0 .031000002 0 .012 C 0 0 .009 0 .028 0 L .35900004 0 C .56700006 0 .764 .21100001 .764 .43 C .764 .57100006 .679 .683 .529 .683 L .193 .683 C .17400001 .683 .163 .683 .163 .66400006 C .163 .652 .172 .652 .192 .652 C .205 .652 .223 .651 .235 .65000006 C .25100003 .648 .25700004 .64500007 .25700004 .634 C .25700004 .63000008 .256 .62700006 .25300003 .615 L .119 .078 M .33500005 .614 C .344 .64900007 .34600003 .652 .38900004 .652 L .49600003 .652 C .594 .652 .677 .59900006 .677 .467 C .677 .418 .657 .254 .572 .14400001 C .543 .10700001 .46400003 .031000002 .34100003 .031000002 L .228 .031000002 C .214 .031000002 .212 .031000002 .206 .032 C .19600001 .033 .193 .034 .193 .042000005 C .193 .045 .193 .047000003 .198 .065000008 L .33500005 .614 Z "/>
</symbol>
<use xlink:href="#font_1_e" transform="matrix(30.303053,0,0,-30.303053,893.9232,348.71107)"/>
<use xlink:href="#font_1_8" transform="matrix(30.303053,0,0,-30.303053,917.58987,348.71107)"/>
<use xlink:href="#font_1_e" transform="matrix(30.303053,0,0,-30.303053,943.52926,348.71107)"/>
<use xlink:href="#font_2_1" transform="matrix(22.139166,0,0,-22.139166,966.5423,336.19996)"/>
<symbol id="font_0_22">
<path d="M .19200002 .316 L .36100004 .316 C .48100005 .316 .589 .397 .589 .497 C .589 .595 .49000005 .683 .35300002 .683 L 0 .683 L 0 .652 L .024000004 .652 C .10100001 .652 .103000018 .64100006 .103000018 .605 L .103000018 .078 C .103000018 .042000005 .10100001 .031000002 .024000004 .031000002 L 0 .031000002 L 0 0 C .035 .003 .10900001 .003 .14700002 .003 C .18500002 .003 .26000003 .003 .29500003 0 L .29500003 .031000002 L .27100004 .031000002 C .19400002 .031000002 .19200002 .042000005 .19200002 .078 L .19200002 .316 M .18900001 .342 L .18900001 .61200007 C .18900001 .64500007 .19100002 .652 .238 .652 L .32700003 .652 C .48600004 .652 .48600004 .546 .48600004 .497 C .48600004 .45000003 .48600004 .342 .32700003 .342 L .18900001 .342 Z "/>
</symbol>
<symbol id="font_0_34">
<path d="M .144 .44200004 L .0040000008 .43100003 L .0040000008 .4 C .069000009 .4 .07800001 .39400003 .07800001 .34500004 L .07800001 .076000008 C .07800001 .031000002 .067 .031000002 0 .031000002 L 0 0 C .032000007 .001 .086 .003 .11000001 .003 C .14500001 .003 .18 .001 .21400002 0 L .21400002 .031000002 C .148 .031000002 .144 .036000004 .144 .075 L .144 .44200004 M .148 .61600008 C .148 .648 .123 .669 .095000009 .669 C .064 .669 .042000005 .642 .042000005 .61600008 C .042000005 .58900007 .064 .563 .095000009 .563 C .123 .563 .148 .58400008 .148 .61600008 Z "/>
</symbol>
<symbol id="font_0_33">
<path d="M .07800001 .076000008 C .07800001 .031000002 .067 .031000002 0 .031000002 L 0 0 C .035 .001 .08600001 .003 .113000009 .003 C .139 .003 .191 .001 .225 0 L .225 .031000002 C .158 .031000002 .147 .031000002 .147 .076000008 L .147 .26000003 C .147 .36400003 .218 .42000003 .282 .42000003 C .345 .42000003 .356 .36600004 .356 .30900003 L .356 .076000008 C .356 .031000002 .345 .031000002 .278 .031000002 L .278 0 C .31300003 .001 .36400003 .003 .391 .003 C .41700004 .003 .46900005 .001 .503 0 L .503 .031000002 C .451 .031000002 .42600004 .031000002 .425 .061000006 L .425 .252 C .425 .33800004 .425 .36900003 .39400003 .40500004 C .38000003 .42200003 .347 .44200004 .289 .44200004 C .20500002 .44200004 .161 .38200004 .14400001 .344 L .14400001 .694 L 0 .683 L 0 .652 C .07000001 .652 .07800001 .64500007 .07800001 .596 L .07800001 .076000008 Z "/>
</symbol>
<symbol id="font_0_32">
<path d="M .19400002 .37800003 C .10700001 .37800003 .10700001 .47800005 .10700001 .50100007 C .10700001 .52800008 .10800001 .56 .12300001 .58500006 C .13100001 .59700009 .15400002 .62500008 .19400002 .62500008 C .28100003 .62500008 .28100003 .52500006 .28100003 .50200006 C .28100003 .47500003 .28000004 .44300003 .26500003 .41800005 C .25700004 .40600003 .23400003 .37800003 .19400002 .37800003 M .07800001 .33900003 C .07800001 .34300003 .07800001 .36600004 .095 .38600005 C .134 .35800005 .17500001 .35500003 .19400002 .35500003 C .28700004 .35500003 .356 .42400003 .356 .50100007 C .356 .53800007 .34000004 .57500007 .31500004 .59800007 C .351 .632 .38700003 .637 .40500004 .637 C .40700004 .637 .41200004 .637 .41500003 .63600006 C .404 .632 .39900003 .62100008 .39900003 .609 C .39900003 .592 .41200004 .58000007 .42800004 .58000007 C .43800003 .58000007 .45700003 .587 .45700003 .61 C .45700003 .62700006 .44500003 .65900006 .40600003 .65900006 C .38600005 .65900006 .342 .65300008 .3 .61200007 C .25800003 .64500007 .21600002 .64800009 .19400002 .64800009 C .10100001 .64800009 .032 .57900008 .032 .50200006 C .032 .458 .054 .42000003 .07900001 .39900003 C .066 .384 .048000006 .351 .048000006 .316 C .048000006 .28500004 .061 .24700001 .09200001 .22700002 C .032 .21000001 0 .16700001 0 .127 C 0 .055000009 .09900001 0 .22100002 0 C .33900003 0 .44300003 .051000015 .44300003 .12900001 C .44300003 .164 .42900003 .21500002 .37800003 .24300002 C .32500003 .27100004 .26700003 .27100004 .20600002 .27100004 C .18100001 .27100004 .13800001 .27100004 .13100001 .272 C .09900001 .27600003 .07800001 .307 .07800001 .33900003 M .222 .023000002 C .12100001 .023000002 .052000006 .074000019 .052000006 .127 C .052000006 .17300001 .09 .21000001 .134 .21300002 L .19300002 .21300002 C .279 .21300002 .39100004 .21300002 .39100004 .127 C .39100004 .073000017 .32000003 .023000002 .222 .023000002 Z "/>
</symbol>
<symbol id="font_0_41">
<path d="M .397 .344 C .40600003 .367 .42300005 .41000004 .48900003 .411 L .48900003 .44200004 C .46600003 .44000004 .43700005 .43900005 .41400004 .43900005 C .39000003 .43900005 .344 .441 .32700003 .44200004 L .32700003 .411 C .36400003 .41000004 .37500004 .38700003 .37500004 .36800004 C .37500004 .35900004 .37300004 .35500003 .36900003 .344 L .26700003 .089 L .155 .36800004 C .14900002 .381 .14900002 .38300003 .14900002 .38500003 C .14900002 .411 .18800003 .411 .206 .411 L .206 .44200004 C .176 .441 .12000001 .43900005 .097 .43900005 C .07 .43900005 .030000002 .44000004 0 .44200004 L 0 .411 C .063 .411 .067 .40500004 .080000009 .374 L .224 .019000002 C .23000002 .005000001 .23200003 0 .245 0 C .25800003 0 .26200003 .009000001 .26600004 .019000002 L .397 .344 Z "/>
</symbol>
<symbol id="font_0_2e">
<path d="M .083000008 .22900002 C .083000008 .39200003 .16500002 .43400003 .218 .43400003 C .227 .43400003 .29 .43300004 .32500003 .397 C .284 .39400003 .278 .36400003 .278 .351 C .278 .32500003 .296 .305 .324 .305 C .35 .305 .37 .32200004 .37 .35200004 C .37 .42000003 .294 .45900003 .21700001 .45900003 C .092 .45900003 0 .351 0 .22700002 C 0 .09900001 .099 0 .215 0 C .349 0 .381 .120000008 .381 .13000001 C .381 .14000002 .37100003 .14000002 .368 .14000002 C .359 .14000002 .35700003 .136 .35500003 .13000001 C .326 .037 .261 .025000003 .224 .025000003 C .171 .025000003 .083000008 .068 .083000008 .22900002 Z "/>
</symbol>
<symbol id="font_0_3a">
<path d="M .44300003 .22500003 C .44300003 .35300002 .34300003 .45900003 .222 .45900003 C .097 .45900003 0 .35000003 0 .22500003 C 0 .096 .104 0 .22100002 0 C .342 0 .44300003 .098000008 .44300003 .22500003 M .222 .025000003 C .17900002 .025000003 .135 .046 .10800001 .092 C .083000008 .136 .083000008 .19700001 .083000008 .23300003 C .083000008 .272 .083000008 .32600004 .10700001 .37000004 C .134 .41600005 .18100001 .43700005 .22100002 .43700005 C .26500003 .43700005 .30800004 .41500003 .33400003 .37200005 C .36 .32900004 .36 .27100004 .36 .23300003 C .36 .19700001 .36 .143 .33800004 .09900001 C .316 .054 .272 .025000003 .222 .025000003 Z "/>
</symbol>
<symbol id="font_0_3d">
<path d="M .13900002 .33200003 L .13900002 .44200004 L 0 .43100003 L 0 .4 C .07000001 .4 .07800001 .393 .07800001 .344 L .07800001 .076000008 C .07800001 .031000002 .067 .031000002 0 .031000002 L 0 0 C .039 .001 .08600001 .003 .11400001 .003 C .15400002 .003 .20100002 .003 .24100003 0 L .24100003 .031000002 L .22000002 .031000002 C .14600002 .031000002 .14400001 .042000005 .14400001 .078 L .14400001 .23200001 C .14400001 .33100004 .18600002 .42000003 .26200003 .42000003 C .26900003 .42000003 .27100004 .42000003 .27300004 .41900004 C .27 .418 .25000004 .40600003 .25000004 .38000003 C .25000004 .35200004 .27100004 .337 .293 .337 C .31100003 .337 .33600004 .349 .33600004 .381 C .33600004 .41300003 .305 .44200004 .26200003 .44200004 C .18900001 .44200004 .15300001 .37500004 .13900002 .33200003 Z "/>
</symbol>
<symbol id="font_0_31">
<path d="M .14200002 .43100003 L .14200002 .54700008 C .14200002 .63500007 .19 .683 .23400003 .683 C .23700002 .683 .25200004 .683 .26700003 .67600008 C .25500003 .67200008 .23700002 .65900006 .23700002 .634 C .23700002 .611 .25300003 .591 .28000004 .591 C .30900003 .591 .32400004 .611 .32400004 .63500007 C .32400004 .67200008 .28700004 .70500007 .23400003 .70500007 C .164 .70500007 .079 .652 .079 .546 L .079 .43100003 L 0 .43100003 L 0 .4 L .079 .4 L .079 .076000008 C .079 .031000002 .068 .031000002 .001000002 .031000002 L .001000002 0 C .040000008 .001 .087000008 .003 .115 .003 C .155 .003 .20200002 .003 .24200002 0 L .24200002 .031000002 L .22100002 .031000002 C .14700002 .031000002 .14500001 .042000005 .14500001 .078 L .14500001 .4 L .25900004 .4 L .25900004 .43100003 L .14200002 .43100003 Z "/>
</symbol>
<symbol id="font_0_17">
<path d="M .36600004 .69600006 C .361 .70900008 .35900004 .716 .34300003 .716 C .32700003 .716 .324 .71000006 .319 .69600006 L .112 .098000008 C .094 .047000003 .054 .032 0 .031000002 L 0 0 C .023000002 .001 .066 .003 .102 .003 C .133 .003 .185 .001 .21700001 0 L .21700001 .031000002 C .16700001 .031000002 .142 .056 .142 .082 C .142 .085 .143 .095000009 .14400001 .097 L .19000001 .22800002 L .437 .22800002 L .49 .075 C .491 .071 .49300004 .065000008 .49300004 .061000006 C .49300004 .031000002 .437 .031000002 .41000004 .031000002 L .41000004 0 C .446 .003 .51600006 .003 .554 .003 C .597 .003 .643 .002 .685 0 L .685 .031000002 L .66700008 .031000002 C .60700008 .031000002 .593 .038000004 .582 .071 L .36600004 .69600006 M .31300003 .58400008 L .42600004 .259 L .201 .259 L .31300003 .58400008 Z "/>
</symbol>
<symbol id="font_0_9">
<path d="M .106 .053000004 C .106 .082 .08200001 .106000009 .05300001 .106000009 C .024000004 .106000009 0 .082 0 .053000004 C 0 .024 .024000004 0 .05300001 0 C .08200001 0 .106 .024 .106 .053000004 Z "/>
</symbol>
<symbol id="font_0_19">
<path d="M 0 .683 L 0 .652 L .024000004 .652 C .10100001 .652 .103000018 .64100006 .103000018 .605 L .103000018 .078 C .103000018 .042000005 .10100001 .031000002 .024000004 .031000002 L 0 .031000002 L 0 0 L .36600004 0 C .534 0 .672 .148 .672 .33600004 C .672 .526 .537 .683 .36600004 .683 L 0 .683 M .238 .031000002 C .19100002 .031000002 .18900001 .038000004 .18900001 .071 L .18900001 .61200007 C .18900001 .64500007 .19100002 .652 .238 .652 L .33800004 .652 C .40000005 .652 .469 .63000008 .52 .559 C .563 .5 .572 .41400004 .572 .33600004 C .572 .22500001 .553 .165 .517 .116000007 C .497 .089 .44000004 .031000002 .33900003 .031000002 L .238 .031000002 Z "/>
</symbol>
<symbol id="font_0_2c">
<path d="M .291 .087000008 C .29500003 .047000003 .32200004 .005000001 .36900003 .005000001 C .39000003 .005000001 .45100004 .019000002 .45100004 .1 L .45100004 .15600002 L .42600004 .15600002 L .42600004 .1 C .42600004 .042000005 .40100003 .036000004 .39000003 .036000004 C .35700003 .036000004 .35300002 .081 .35300002 .086 L .35300002 .286 C .35300002 .328 .35300002 .367 .31700004 .404 C .27800004 .44300003 .22800002 .45900003 .18 .45900003 C .098 .45900003 .029 .41200004 .029 .34600003 C .029 .316 .049000004 .29900003 .075 .29900003 C .10300001 .29900003 .121 .31900005 .121 .34500004 C .121 .35700003 .116000007 .39000003 .07 .39100004 C .09700001 .42600004 .146 .43700005 .178 .43700005 C .22700003 .43700005 .284 .39800004 .284 .30900003 L .284 .272 C .23300001 .26900003 .16300002 .26600004 .1 .23600002 C .024999999 .20200002 0 .15000002 0 .106000009 C 0 .025000003 .09700001 0 .16 0 C .22600001 0 .272 .040000004 .291 .087000008 M .284 .25100003 L .284 .15100001 C .284 .056 .21200001 .022000002 .167 .022000002 C .11800001 .022000002 .077 .057000005 .077 .107 C .077 .16200002 .11900001 .24500002 .284 .25100003 Z "/>
</symbol>
<symbol id="font_0_37">
<path d="M .144 .694 L 0 .683 L 0 .652 C .07000001 .652 .07800001 .64500007 .07800001 .596 L .07800001 .076000008 C .07800001 .031000002 .067 .031000002 0 .031000002 L 0 0 C .033 .001 .086 .003 .11100001 .003 C .136 .003 .185 .001 .22200004 0 L .22200004 .031000002 C .155 .031000002 .144 .031000002 .144 .076000008 L .144 .694 Z "/>
</symbol>
<symbol id="font_0_38">
<path d="M .07800001 .344 L .07800001 .076000008 C .07800001 .031000002 .067 .031000002 0 .031000002 L 0 0 C .035 .001 .08600001 .003 .113000009 .003 C .139 .003 .191 .001 .225 0 L .225 .031000002 C .158 .031000002 .147 .031000002 .147 .076000008 L .147 .26000003 C .147 .36400003 .218 .42000003 .282 .42000003 C .345 .42000003 .356 .36600004 .356 .30900003 L .356 .076000008 C .356 .031000002 .345 .031000002 .278 .031000002 L .278 0 C .31300003 .001 .36400003 .003 .391 .003 C .41700004 .003 .46900005 .001 .503 0 L .503 .031000002 C .43600003 .031000002 .425 .031000002 .425 .076000008 L .425 .26000003 C .425 .36400003 .496 .42000003 .56 .42000003 C .623 .42000003 .634 .36600004 .634 .30900003 L .634 .076000008 C .634 .031000002 .623 .031000002 .556 .031000002 L .556 0 C .591 .001 .642 .003 .669 .003 C .69500008 .003 .74700006 .001 .781 0 L .781 .031000002 C .72900006 .031000002 .70400008 .031000002 .703 .061000006 L .703 .252 C .703 .33800004 .703 .36900003 .67200008 .40500004 C .65800008 .42200003 .625 .44200004 .56700006 .44200004 C .48300005 .44200004 .439 .38200004 .42200003 .344 C .40800003 .43100003 .33400003 .44200004 .289 .44200004 C .216 .44200004 .169 .39900003 .141 .337 L .141 .44200004 L 0 .43100003 L 0 .4 C .07000001 .4 .07800001 .393 .07800001 .344 Z "/>
</symbol>
<symbol id="font_0_43">
<path d="M .275 .23500002 C .305 .273 .34300003 .32200004 .367 .34800003 C .39800004 .384 .43900005 .39900003 .48600004 .4 L .48600004 .43100003 C .46000005 .42900003 .43000005 .42800004 .404 .42800004 C .374 .42800004 .321 .43 .30800004 .43100003 L .30800004 .4 C .32900004 .39800004 .337 .38500003 .337 .36900003 C .337 .35300002 .32700003 .34 .32200004 .33400003 L .26000003 .256 L .18200001 .35700003 C .17300001 .367 .17300001 .36900003 .17300001 .37500004 C .17300001 .39000003 .18800001 .39900003 .20800002 .4 L .20800002 .43100003 C .18200001 .43 .116000007 .42800004 .1 .42800004 C .079 .42800004 .032000007 .42900003 .005000001 .43100003 L .005000001 .4 C .075 .4 .076000008 .39900003 .123 .33900003 L .22200002 .21000001 L .128 .091000009 C .080000009 .033 .021 .031000002 0 .031000002 L 0 0 C .026000003 .002 .057000005 .003 .083000008 .003 C .112 .003 .15400002 .001 .17800002 0 L .17800002 .031000002 C .15600002 .034 .14900002 .047000003 .14900002 .062000004 C .14900002 .08400001 .17800002 .117000009 .23900002 .18900001 L .31500004 .089 C .323 .078 .33600004 .062000004 .33600004 .056 C .33600004 .047000003 .32700003 .032 .3 .031000002 L .3 0 C .33 .001 .38600005 .003 .40800003 .003 C .43500004 .003 .47400005 .002 .504 0 L .504 .031000002 C .45000003 .031000002 .43200005 .033 .40900005 .062000004 L .275 .23500002 Z "/>
</symbol>
<symbol id="font_0_42">
<path d="M .601 .34700004 C .619 .397 .65000006 .41000004 .685 .411 L .685 .44200004 C .66300007 .44000004 .634 .43900005 .61200007 .43900005 C .583 .43900005 .53800007 .441 .519 .44200004 L .519 .411 C .555 .41000004 .577 .39200003 .577 .36300005 C .577 .35700003 .577 .35500003 .572 .34200005 L .481 .086 L .382 .365 C .37800003 .37700004 .377 .37900005 .377 .38400004 C .377 .411 .416 .411 .43600003 .411 L .43600003 .44200004 C .407 .441 .356 .43900005 .33200003 .43900005 C .30200003 .43900005 .273 .44000004 .243 .44200004 L .243 .411 C .28 .411 .296 .40900005 .306 .39600004 C .31100003 .39000003 .322 .36 .329 .34100003 L .243 .09900001 L .148 .36600004 C .143 .37800003 .143 .38000003 .143 .38400004 C .143 .411 .182 .411 .202 .411 L .202 .44200004 C .172 .441 .116000007 .43900005 .09300001 .43900005 C .08900001 .43900005 .036 .44000004 0 .44200004 L 0 .411 C .050000006 .411 .062000008 .40800003 .07400001 .37600003 L .2 .022000002 C .205 .008000001 .208 0 .221 0 C .234 0 .236 .0060000007 .241 .020000002 L .342 .30300004 L .444 .019000002 C .448 .008000001 .451 0 .46400003 0 C .47700004 0 .48000003 .009000001 .48400004 .019000002 L .601 .34700004 Z "/>
</symbol>
<symbol id="font_0_40">
<path d="M .35900004 .09 L .35900004 0 L .503 .011000001 L .503 .042000005 C .43300004 .042000005 .425 .049000004 .425 .098000008 L .425 .45300005 L .278 .44200004 L .278 .411 C .34800003 .411 .356 .404 .356 .35500003 L .356 .17700002 C .356 .09 .308 .022000002 .23500002 .022000002 C .15100001 .022000002 .147 .069000009 .147 .12100001 L .147 .45300005 L 0 .44200004 L 0 .411 C .07800001 .411 .07800001 .40800003 .07800001 .31900005 L .07800001 .16900002 C .07800001 .091000009 .07800001 0 .23000002 0 C .286 0 .33 .028 .35900004 .09 Z "/>
</symbol>
<use xlink:href="#font_0_22" transform="matrix(30.303053,0,0,-30.303053,249.094,404.33595)"/>
<use xlink:href="#font_0_34" transform="matrix(30.303053,0,0,-30.303053,279.76069,404.33595)"/>
<use xlink:href="#font_0_3e" transform="matrix(30.303053,0,0,-30.303053,288.18495,404.66929)"/>
<use xlink:href="#font_0_3f" transform="matrix(30.303053,0,0,-30.303053,309.82133,404.66929)"/>
<use xlink:href="#font_0_33" transform="matrix(30.303053,0,0,-30.303053,322.00315,404.33595)"/>
<use xlink:href="#font_0_30" transform="matrix(30.303053,0,0,-30.303053,338.73045,404.66929)"/>
<use xlink:href="#font_0_30" transform="matrix(30.303053,0,0,-30.303053,362.2759,404.66929)"/>
<use xlink:href="#font_0_34" transform="matrix(30.303053,0,0,-30.303053,375.882,404.33595)"/>
<use xlink:href="#font_0_32" transform="matrix(30.303053,0,0,-30.303053,384.15473,410.57838)"/>
<use xlink:href="#font_0_30" transform="matrix(30.303053,0,0,-30.303053,399.3062,404.66929)"/>
<use xlink:href="#font_0_39" transform="matrix(30.303053,0,0,-30.303053,412.88203,404.33595)"/>
<use xlink:href="#font_0_41" transform="matrix(30.303053,0,0,-30.303053,428.48808,404.66929)"/>
<use xlink:href="#font_0_30" transform="matrix(30.303053,0,0,-30.303053,443.91239,404.66929)"/>
<use xlink:href="#font_0_2e" transform="matrix(30.303053,0,0,-30.303053,457.54878,404.66929)"/>
<use xlink:href="#font_0_3f" transform="matrix(30.303053,0,0,-30.303053,470.57908,404.66929)"/>
<use xlink:href="#font_0_3a" transform="matrix(30.303053,0,0,-30.303053,482.63969,404.66929)"/>
<use xlink:href="#font_0_3d" transform="matrix(30.303053,0,0,-30.303053,497.7912,404.33595)"/>
<use xlink:href="#font_0_3e" transform="matrix(30.303053,0,0,-30.303053,509.7912,404.66929)"/>
<use xlink:href="#font_0_3a" transform="matrix(30.303053,0,0,-30.303053,531.7004,404.66929)"/>
<use xlink:href="#font_0_31" transform="matrix(30.303053,0,0,-30.303053,547.00338,404.33595)"/>
<use xlink:href="#font_0_17" transform="matrix(30.303053,0,0,-30.303053,566.33676,404.33595)"/>
<use xlink:href="#font_0_9" transform="matrix(30.303053,0,0,-30.303053,590.7004,404.33595)"/>
<use xlink:href="#font_0_19" transform="matrix(30.303053,0,0,-30.303053,607.6701,404.33595)"/>
<use xlink:href="#font_0_2c" transform="matrix(30.303053,0,0,-30.303053,641.15499,404.66929)"/>
<use xlink:href="#font_0_2f" transform="matrix(30.303053,0,0,-30.303053,666.15499,404.66929)"/>
<use xlink:href="#font_0_34" transform="matrix(30.303053,0,0,-30.303053,682.9732,404.33595)"/>
<use xlink:href="#font_0_2c" transform="matrix(30.303053,0,0,-30.303053,691.67019,404.66929)"/>
<use xlink:href="#font_0_32" transform="matrix(30.303053,0,0,-30.303053,706.39749,410.57838)"/>
<use xlink:href="#font_0_3a" transform="matrix(30.303053,0,0,-30.303053,721.54898,404.66929)"/>
<use xlink:href="#font_0_39" transform="matrix(30.303053,0,0,-30.303053,736.8218,404.33595)"/>
<use xlink:href="#font_0_2c" transform="matrix(30.303053,0,0,-30.303053,753.9732,404.66929)"/>
<use xlink:href="#font_0_37" transform="matrix(30.303053,0,0,-30.303053,768.85208,404.33595)"/>
<use xlink:href="#font_0_38" transform="matrix(30.303053,0,0,-30.303053,787.3369,404.33595)"/>
<use xlink:href="#font_0_2c" transform="matrix(30.303053,0,0,-30.303053,812.8823,404.66929)"/>
<use xlink:href="#font_0_3f" transform="matrix(30.303053,0,0,-30.303053,827.3369,404.66929)"/>
<use xlink:href="#font_0_3d" transform="matrix(30.303053,0,0,-30.303053,839.3976,404.33595)"/>
<use xlink:href="#font_0_34" transform="matrix(30.303053,0,0,-30.303053,851.4279,404.33595)"/>
<use xlink:href="#font_0_43" transform="matrix(30.303053,0,0,-30.303053,859.21578,404.33595)"/>
<use xlink:href="#font_0_42" transform="matrix(30.303053,0,0,-30.303053,885.51889,404.66929)"/>
<use xlink:href="#font_0_34" transform="matrix(30.303053,0,0,-30.303053,907.8522,404.33595)"/>
<use xlink:href="#font_0_3f" transform="matrix(30.303053,0,0,-30.303053,915.8521,404.66929)"/>
<use xlink:href="#font_0_33" transform="matrix(30.303053,0,0,-30.303053,928.03408,404.33595)"/>
<use xlink:href="#font_0_3f" transform="matrix(30.303053,0,0,-30.303053,954.57949,404.66929)"/>
<use xlink:href="#font_0_33" transform="matrix(30.303053,0,0,-30.303053,966.76138,404.33595)"/>
<use xlink:href="#font_0_30" transform="matrix(30.303053,0,0,-30.303053,983.48867,404.66929)"/>
<use xlink:href="#font_0_30" transform="matrix(30.303053,0,0,-30.303053,1007.03408,404.66929)"/>
<use xlink:href="#font_0_34" transform="matrix(30.303053,0,0,-30.303053,1020.6401,404.33595)"/>
<use xlink:href="#font_0_32" transform="matrix(30.303053,0,0,-30.303053,1028.9127,410.57838)"/>
<use xlink:href="#font_0_30" transform="matrix(30.303053,0,0,-30.303053,1044.0643,404.66929)"/>
<use xlink:href="#font_0_39" transform="matrix(30.303053,0,0,-30.303053,1057.64,404.33595)"/>
<use xlink:href="#font_0_41" transform="matrix(30.303053,0,0,-30.303053,1073.2462,404.66929)"/>
<use xlink:href="#font_0_2c" transform="matrix(30.303053,0,0,-30.303053,1088.2764,404.66929)"/>
<use xlink:href="#font_0_37" transform="matrix(30.303053,0,0,-30.303053,1103.1553,404.33595)"/>
<use xlink:href="#font_0_40" transform="matrix(30.303053,0,0,-30.303053,1111.5492,404.66929)"/>
<use xlink:href="#font_0_30" transform="matrix(30.303053,0,0,-30.303053,1128.2765,404.66929)"/>
<use xlink:href="#font_0_3e" transform="matrix(30.303053,0,0,-30.303053,1141.8825,404.66929)"/>
<use xlink:href="#font_0_3a" transform="matrix(30.303053,0,0,-30.303053,1163.7614,404.66929)"/>
<use xlink:href="#font_0_31" transform="matrix(30.303053,0,0,-30.303053,1179.0643,404.33595)"/>
<use xlink:href="#font_0_17" transform="matrix(30.303053,0,0,-30.303053,1198.4281,404.33595)"/>
<use xlink:href="#font_0_9" transform="matrix(30.303053,0,0,-30.303053,1222.7918,404.33595)"/>
<use xlink:href="#font_1_8" transform="matrix(30.303053,0,0,-30.303053,700.7066,507.46656)"/>
<use xlink:href="#font_0_16" transform="matrix(30.303053,0,0,-30.303053,735.53866,503.43626)"/>
<symbol id="font_3_5">
<path d="M 0 0 L .069000009 0 L .069000009 1.7300001 L .33300004 1.7300001 L .33300004 1.7990002 L 0 1.7990002 L 0 0 Z "/>
</symbol>
<symbol id="font_3_7">
<path d="M 0 0 L .33300004 0 L .33300004 .069000009 L .069000009 .069000009 L .069000009 1.799 L 0 1.799 L 0 0 Z "/>
</symbol>
<use xlink:href="#font_3_5" transform="matrix(30.303053,0,0,-30.303053,775.70938,499.8916)"/>
<use xlink:href="#font_3_7" transform="matrix(30.303053,0,0,-30.303053,775.70938,554.4087)"/>
<symbol id="font_1_1">
<path d="M .30400003 .30500005 C .34500004 .2 .393 .047000003 .409 .024 C .425 .0019999995 .43500004 .0019999995 .46200005 .0019999995 L .484 .0019999995 C .49400006 .0029999996 .49500004 .009 .49500004 .012 C .49500004 .015000001 .493 .017 .49000005 .021000002 C .48000006 .032 .474 .047000003 .46700005 .067 L .263 .63600006 C .24200002 .69400009 .18800001 .707 .141 .707 C .136 .707 .12300001 .707 .12300001 .69600006 C .12300001 .688 .13100001 .68600007 .132 .68600007 C .165 .68000009 .172 .674 .197 .60600009 L .294 .33400003 L .018 .060000004 C .006000001 .048 0 .042000005 0 .029000001 C 0 .012 .013999999 0 .030000002 0 C .046000005 0 .055 .011 .063 .021000002 L .30400003 .30500005 Z "/>
</symbol>
<use xlink:href="#font_1_1" transform="matrix(30.303053,0,0,-30.303053,787.63668,470.17729)"/>
<symbol id="font_4_1">
<path d="M .21800001 .637 C .21800001 .66400006 .216 .665 .18900003 .665 C .14800002 .625 .09500001 .601 0 .601 L 0 .568 C .027000003 .568 .081 .568 .13900002 .595 L .13900002 .082 C .13900002 .045 .136 .033 .04100001 .033 L .0060000049 .033 L .0060000049 0 C .047000007 .003 .13300002 .003 .17800002 .003 C .223 .003 .31 .003 .351 0 L .351 .033 L .31600005 .033 C .221 .033 .21800001 .045 .21800001 .082 L .21800001 .637 Z "/>
</symbol>
<use xlink:href="#font_4_1" transform="matrix(22.139166,0,0,-22.139166,805.83377,474.32777)"/>
<symbol id="font_0_b">
<path d="M .421 .34200005 C .421 .42200003 .416 .50200006 .381 .57600006 C .335 .67200008 .25300003 .688 .211 .688 C .15100001 .688 .07800001 .66200008 .037000006 .56900009 C .0050000029 .5 0 .42200003 0 .34200005 C 0 .26700003 .0040000008 .177 .045000007 .101 C .088 .020000002 .161 0 .21000001 0 C .264 0 .34 .021000002 .384 .116000007 C .416 .185 .421 .263 .421 .34200005 M .21000001 .022000002 C .171 .022000002 .112 .047000003 .094 .143 C .083000008 .20300001 .083000008 .29500003 .083000008 .35400004 C .083000008 .41800005 .083000008 .48400004 .091000009 .53800007 C .11 .65700009 .185 .66600009 .21000001 .66600009 C .243 .66600009 .30900003 .64800009 .328 .549 C .338 .49300004 .338 .41700004 .338 .35400004 C .338 .279 .338 .21100001 .32700003 .147 C .312 .052 .255 .022000002 .21000001 .022000002 Z "/>
</symbol>
<use xlink:href="#font_0_b" transform="matrix(30.303053,0,0,-30.303053,853.5457,470.44999)"/>
<use xlink:href="#font_0_b" transform="matrix(30.303053,0,0,-30.303053,912.03067,470.44999)"/>
<use xlink:href="#font_0_b" transform="matrix(30.303053,0,0,-30.303053,795.0485,508.0861)"/>
<use xlink:href="#font_1_1" transform="matrix(30.303053,0,0,-30.303053,846.1339,507.8134)"/>
<symbol id="font_4_2">
<path d="M .229 .20400001 C .245 .21900001 .287 .252 .303 .266 C .365 .323 .42400003 .37800003 .42400003 .469 C .42400003 .588 .324 .665 .199 .665 C .078999999 .665 0 .574 0 .485 C 0 .43600003 .039000006 .42900003 .053000004 .42900003 C .074 .42900003 .105000007 .44400005 .105000007 .48200003 C .105000007 .53400006 .055 .53400006 .042999999 .53400006 C .072 .60700008 .139 .632 .18800001 .632 C .28100003 .632 .32900004 .55300006 .32900004 .469 C .32900004 .365 .256 .289 .13800001 .16800002 L .012000002 .038000004 C 0 .027 0 .025 0 0 L .395 0 L .42400003 .179 L .393 .179 C .39000003 .15900001 .38200004 .109000008 .37 .09 C .36400003 .082 .28800003 .082 .272 .082 L .094 .082 L .229 .20400001 Z "/>
</symbol>
<use xlink:href="#font_4_2" transform="matrix(22.139166,0,0,-22.139166,863.379,511.96388)"/>
<use xlink:href="#font_0_b" transform="matrix(30.303053,0,0,-30.303053,912.0403,508.0861)"/>
<use xlink:href="#font_0_b" transform="matrix(30.303053,0,0,-30.303053,795.0486,545.7222)"/>
<use xlink:href="#font_0_b" transform="matrix(30.303053,0,0,-30.303053,853.5335,545.7222)"/>
<use xlink:href="#font_1_1" transform="matrix(30.303053,0,0,-30.303053,904.63119,545.44949)"/>
<symbol id="font_4_3">
<path d="M .20900002 .35500003 C .28800003 .35500003 .33800004 .29700003 .33800004 .192 C .33800004 .067 .26700003 .030000002 .21400002 .030000002 C .15900001 .030000002 .08400001 .050000006 .049 .103 C .08500001 .103 .110000018 .126 .110000018 .15900001 C .110000018 .191 .08700001 .214 .055000005 .214 C .028 .214 0 .19700001 0 .157 C 0 .062000004 .10200001 0 .21600002 0 C .349 0 .44200004 .09200001 .44200004 .192 C .44200004 .275 .37600003 .351 .27400003 .37300004 C .35300002 .40100003 .41200004 .469 .41200004 .549 C .41200004 .62900009 .32200004 .68600007 .21800003 .68600007 C .111 .68600007 .029999998 .6280001 .029999998 .55200007 C .029999998 .51500007 .055000005 .499 .081 .499 C .112 .499 .13200002 .521 .13200002 .5500001 C .13200002 .5870001 .10000001 .6010001 .07800001 .60200008 C .120000008 .65700009 .19700001 .6600001 .215 .6600001 C .24100003 .6600001 .31700004 .65200009 .31700004 .549 C .31700004 .47900004 .28800003 .437 .27400003 .421 C .24400002 .39000003 .22100002 .388 .16000001 .384 C .141 .38300003 .133 .38200004 .133 .36900003 C .133 .35500003 .142 .35500003 .15900001 .35500003 L .20900002 .35500003 Z "/>
</symbol>
<use xlink:href="#font_4_3" transform="matrix(22.139166,0,0,-22.139166,921.67428,550.0678)"/>
<symbol id="font_3_6">
<path d="M .26400004 0 L .333 0 L .333 1.7990002 L 0 1.7990002 L 0 1.7300001 L .26400004 1.7300001 L .26400004 0 Z "/>
</symbol>
<symbol id="font_3_8">
<path d="M .26400004 .069000009 L 0 .069000009 L 0 0 L .333 0 L .333 1.799 L .26400004 1.799 L .26400004 .069000009 Z "/>
</symbol>
<use xlink:href="#font_3_6" transform="matrix(30.303053,0,0,-30.303053,934.05947,499.89186)"/>
<use xlink:href="#font_3_8" transform="matrix(30.303053,0,0,-30.303053,934.05947,554.4088)"/>
<use xlink:href="#font_1_c" transform="matrix(30.303053,0,0,-30.303053,649.53396,617.19729)"/>
<use xlink:href="#font_0_16" transform="matrix(30.303053,0,0,-30.303053,691.07766,613.16696)"/>
<use xlink:href="#font_1_e" transform="matrix(30.303053,0,0,-30.303053,722.57888,617.19729)"/>
<use xlink:href="#font_1_8" transform="matrix(30.303053,0,0,-30.303053,746.2455,617.19729)"/>
<symbol id="font_2_6">
<path d="M .35000003 .386 C .32700003 .382 .30600003 .364 .30600003 .33900003 C .30600003 .321 .31800003 .308 .34 .308 C .35500003 .308 .386 .319 .386 .364 C .386 .426 .321 .451 .259 .451 C .125 .451 .083000008 .356 .083000008 .305 C .083000008 .29500003 .083000008 .259 .120000008 .23100002 C .143 .21300002 .16000001 .21000001 .21200001 .20000002 C .24700001 .19300002 .30400003 .18300002 .30400003 .13100001 C .30400003 .105000007 .28500004 .072000008 .257 .053000004 C .22 .029000003 .171 .028 .155 .028 C .13100001 .028 .063 .032 .038000004 .072000008 C .089 .074 .096 .115 .096 .127 C .096 .157 .069000009 .16400002 .057000005 .16400002 C .041 .16400002 0 .15200001 0 .097 C 0 .038000004 .062 0 .155 0 C .32900004 0 .36600004 .123 .36600004 .165 C .36600004 .255 .268 .274 .231 .28100003 C .18300002 .29 .14400001 .297 .14400001 .33900003 C .14400001 .357 .16100002 .423 .25800003 .423 C .296 .423 .335 .412 .35000003 .386 Z "/>
</symbol>
<symbol id="font_2_4">
<path d="M .433 .60600009 C .43400003 .61 .435 .61600008 .435 .62100008 C .435 .62700006 .43100003 .635 .42200003 .635 C .41 .635 .36900003 .596 .35300002 .568 C .342 .59000006 .312 .635 .25 .635 C .13100001 .635 0 .49600003 0 .34800003 C 0 .244 .067 .184 .14400001 .184 C .19400002 .184 .23500003 .213 .26500003 .23900001 C .264 .236 .23300003 .11 .22900002 .093 C .214 .034999998 .214 .033999996 .15100001 .032999994 C .13900002 .032999994 .12600002 .032999994 .12600002 .013999999 C .12600002 .008000001 .13100001 0 .14100002 0 C .15400002 0 .17700002 .002000004 .19000001 .0029999912 L .24300002 .0029999912 C .323 .0029999912 .341 0 .349 0 C .35300002 0 .368 0 .368 .018999994 C .368 .032999994 .354 .032999994 .342 .032999994 C .294 .032999994 .294 .039000006 .294 .047999994 C .294 .048999996 .294 .054000006 .298 .069000009 L .433 .60600009 M .285 .31800003 C .281 .303 .281 .3 .264 .28100003 C .21200003 .22 .16800002 .21200001 .14700002 .21200001 C .10100001 .21200001 .07800001 .254 .07800001 .306 C .07800001 .35300002 .105000007 .46 .127 .504 C .15600002 .56500008 .20500002 .607 .251 .607 C .31800003 .607 .335 .52900007 .335 .522 C .335 .518 .333 .51100006 .33200003 .50600007 L .285 .31800003 Z "/>
</symbol>
<symbol id="font_2_5">
<path d="M .163 .14800002 C .17400001 .19100002 .185 .23400001 .19500001 .278 C .19600001 .28 .20300001 .30900003 .20400001 .314 C .20700002 .323 .23200003 .364 .25800003 .389 C .29000003 .418 .324 .423 .342 .423 C .35300002 .423 .37100003 .42200003 .38500003 .41 C .342 .40100003 .33600004 .364 .33600004 .35500003 C .33600004 .333 .35300002 .31800003 .37500004 .31800003 C .402 .31800003 .432 .34 .432 .38 C .432 .416 .40100003 .451 .344 .451 C .27600003 .451 .23000002 .40600003 .209 .379 C .18900001 .451 .12100001 .451 .111 .451 C .075 .451 .050000006 .428 .034 .397 C .011 .352 0 .301 0 .298 C 0 .289 .0069999995 .285 .015000001 .285 C .028 .285 .029000003 .289 .036 .315 C .048 .364 .066 .423 .10800001 .423 C .134 .423 .14 .398 .14 .37600003 C .14 .358 .135 .33900003 .127 .306 C .125 .298 .11 .23900002 .106000009 .22500001 L .069000009 .075 C .065000008 .060000004 .059 .035 .059 .031000004 C .059 .008 .078 0 .091000009 0 C .126 0 .133 .028 .141 .062000004 L .163 .14800002 Z "/>
</symbol>
<symbol id="font_2_7">
<path d="M .19600001 .40800003 L .294 .40800003 C .31300003 .40800003 .32500003 .40800003 .32500003 .42700003 C .32500003 .441 .312 .441 .29500003 .441 L .20400001 .441 L .24000001 .583 C .24400002 .598 .24400002 .60300007 .24400002 .60400006 C .24400002 .625 .22800002 .635 .21100001 .635 C .177 .635 .17 .60800006 .15900001 .563 L .128 .441 L .032000007 .441 C .013000002 .441 0 .441 0 .42200003 C 0 .40800003 .013000002 .40800003 .030000003 .40800003 L .12000001 .40800003 L .060000004 .16800002 C .054000006 .143 .045 .108 .045 .094000007 C .045 .034 .094000007 0 .147 0 C .254 0 .315 .14100002 .315 .15300001 C .315 .16400002 .30600003 .16600001 .3 .16600001 C .289 .16600001 .28800003 .16200002 .28100003 .14700002 C .261 .099 .21100001 .028 .15 .028 C .12900001 .028 .117000009 .042000005 .117000009 .075 C .117000009 .094000007 .12000001 .105000007 .123 .118 L .19600001 .40800003 Z "/>
</symbol>
<use xlink:href="#font_2_6" transform="matrix(22.139166,0,0,-22.139166,771.2929,621.9631)"/>
<use xlink:href="#font_2_4" transform="matrix(22.139166,0,0,-22.139166,781.94186,626.0367)"/>
<use xlink:href="#font_2_5" transform="matrix(22.139166,0,0,-22.139166,792.94509,621.9631)"/>
<use xlink:href="#font_2_7" transform="matrix(22.139166,0,0,-22.139166,804.1032,621.9631)"/>
<use xlink:href="#font_1_e" transform="matrix(30.303053,0,0,-30.303053,814.65109,617.19729)"/>
<use xlink:href="#font_2_1" transform="matrix(22.139166,0,0,-22.139166,837.6785,604.68338)"/>
<symbol id="font_0_47">
<path d="M .9990001 0 L .9990001 .021999985 L 0 .021999985 L 0 0 L .9990001 0 Z "/>
</symbol>
<symbol id="font_0_46">
<path d="M .499 0 L .499 .021999985 L 0 .021999985 L 0 0 L .499 0 Z "/>
</symbol>
<symbol id="font_0_4">
<path d="M .23200003 .00999999 C .23200003 .012999982 .23200003 .014999986 .215 .03199999 C .09 .15799999 .058 .347 .058 .5 C .058 .674 .096 .84800007 .21900001 .97300007 C .23200003 .985 .23200003 .98700007 .23200003 .99 C .23200003 .99700006 .22800002 1 .222 1 C .21200001 1 .12200001 .93200007 .06299999 .805 C .012000002 .69500008 0 .584 0 .5 C 0 .422 .011 .301 .066 .188 C .126 .065 .21200001 0 .222 0 C .22800002 0 .23200003 .0029999912 .23200003 .00999999 Z "/>
</symbol>
<symbol id="font_0_c">
<path d="M .205 .64000007 C .205 .66400006 .205 .666 .18200003 .666 C .120000008 .60200008 .032000007 .60200008 0 .60200008 L 0 .57100006 C .020000004 .57100006 .07900001 .57100006 .13100001 .597 L .13100001 .079 C .13100001 .043 .128 .031000002 .038000004 .031000002 L .0060000049 .031000002 L .0060000049 0 C .04100001 .003 .128 .003 .168 .003 C .20800002 .003 .29500003 .003 .33000005 0 L .33000005 .031000002 L .29800005 .031000002 C .20800002 .031000002 .205 .042000005 .205 .079 L .205 .64000007 Z "/>
</symbol>
<symbol id="font_0_d">
<path d="M .07700001 .07700001 L .18300002 .18 C .33900003 .31800003 .39900003 .372 .39900003 .47200004 C .39900003 .586 .30900003 .666 .18700002 .666 C .074 .666 0 .574 0 .485 C 0 .42900003 .05 .42900003 .053000008 .42900003 C .07000001 .42900003 .105000007 .441 .105000007 .48200003 C .105000007 .508 .08700001 .53400006 .052000006 .53400006 C .044000005 .53400006 .042000008 .53400006 .039 .53300008 C .062000004 .59800007 .11600001 .63500007 .17400001 .63500007 C .26500003 .63500007 .308 .554 .308 .47200004 C .308 .39200003 .25800003 .31300003 .20300003 .25100003 L .011000004 .037 C 0 .026 0 .024 0 0 L .37100003 0 L .39900003 .17400001 L .374 .17400001 C .36900003 .14400001 .36200003 .1 .352 .085 C .345 .07700001 .279 .07700001 .257 .07700001 L .07700001 .07700001 Z "/>
</symbol>
<symbol id="font_0_5">
<path d="M .232 .5 C .232 .578 .22100002 .699 .16600001 .81200006 C .106 .93500009 .020000004 1 .009999998 1 C .0040000008 1 0 .99600008 0 .99 C 0 .98700007 0 .985 .019000002 .967 C .117000009 .86800006 .174 .709 .174 .5 C .174 .329 .137 .153 .012999997 .026999996 C 0 .014999986 0 .012999982 0 .00999999 C 0 .003999993 .0040000008 0 .009999998 0 C .020000004 0 .11000001 .06799999 .169 .195 C .22 .305 .232 .416 .232 .5 Z "/>
</symbol>
<use xlink:href="#font_0_47" transform="matrix(30.303053,0,0,-30.303053,865.5501,609.47)"/>
<use xlink:href="#font_0_47" transform="matrix(30.303053,0,0,-30.303053,895.85317,609.47)"/>
<use xlink:href="#font_0_46" transform="matrix(30.303053,0,0,-30.303053,926.1561,609.47)"/>
<use xlink:href="#font_0_4" transform="matrix(30.303053,0,0,-30.303053,954.3986,624.773)"/>
<use xlink:href="#font_0_c" transform="matrix(30.303053,0,0,-30.303053,965.8835,617.19729)"/>
<use xlink:href="#font_0_d" transform="matrix(30.303053,0,0,-30.303053,979.8532,617.19729)"/>
<use xlink:href="#font_0_5" transform="matrix(30.303053,0,0,-30.303053,995.2169,624.773)"/>
<use xlink:href="#font_1_8" transform="matrix(30.303053,0,0,-30.303053,641.59,710.8334)"/>
<use xlink:href="#font_2_6" transform="matrix(22.139166,0,0,-22.139166,666.6402,715.5992)"/>
<use xlink:href="#font_2_4" transform="matrix(22.139166,0,0,-22.139166,677.28909,719.6728)"/>
<use xlink:href="#font_2_5" transform="matrix(22.139166,0,0,-22.139166,688.2923,715.5992)"/>
<use xlink:href="#font_2_7" transform="matrix(22.139166,0,0,-22.139166,699.45046,715.5992)"/>
<use xlink:href="#font_0_16" transform="matrix(30.303053,0,0,-30.303053,718.89987,706.80307)"/>
<use xlink:href="#font_3_5" transform="matrix(30.303053,0,0,-30.303053,759.0678,703.2556)"/>
<use xlink:href="#font_3_7" transform="matrix(30.303053,0,0,-30.303053,759.0678,757.7727)"/>
<symbol id="font_5_3">
<path d="M .316 .10500002 L .14000002 .49400003 C .13300002 .51 .12799999 .51 .125 .51 C .124000009 .51 .118999999 .51 .108 .502 L .012999997 .43 C 0 .42000003 0 .417 0 .41400004 C 0 .40900005 .0029999987 .403 .009999998 .403 C .015999996 .403 .033 .417 .044 .425 C .049999998 .43 .065000008 .44099999 .076 .449 L .273 .015999973 C .28 0 .285 0 .294 0 C .30900003 0 .312 .0059999825 .319 .01999998 L .773 .96000006 C .78000006 .97400006 .78000006 .97800007 .78000006 .98 C .78000006 .99 .772 1 .76000007 1 C .75200006 1 .745 .99500009 .73700007 .97900006 L .316 .10500002 Z "/>
</symbol>
<use xlink:href="#font_5_3" transform="matrix(30.303053,0,0,-30.303053,771.60397,678.68557)"/>
<path transform="matrix(2.7777777,0,0,-2.7777777,794.6444,648.98886)" stroke-width=".436" stroke-linecap="butt" stroke-miterlimit="10" stroke-linejoin="miter" fill="none" stroke="#000000" d="M 0 0 L 11.096 0 "/>
<use xlink:href="#font_1_1" transform="matrix(30.303053,0,0,-30.303053,796.2505,673.54116)"/>
<use xlink:href="#font_4_1" transform="matrix(22.139166,0,0,-22.139166,814.4476,677.69168)"/>
<use xlink:href="#font_0_b" transform="matrix(30.303053,0,0,-30.303053,874.7846,673.8139)"/>
<use xlink:href="#font_0_b" transform="matrix(30.303053,0,0,-30.303053,958.5423,673.8139)"/>
<use xlink:href="#font_0_b" transform="matrix(30.303053,0,0,-30.303053,791.0346,711.45)"/>
<use xlink:href="#font_5_3" transform="matrix(30.303053,0,0,-30.303053,855.35379,716.32156)"/>
<path transform="matrix(2.7777777,0,0,-2.7777777,878.39437,686.62496)" stroke-width=".436" stroke-linecap="butt" stroke-miterlimit="10" stroke-linejoin="miter" fill="none" stroke="#000000" d="M 0 0 L 11.096 0 "/>
<use xlink:href="#font_1_1" transform="matrix(30.303053,0,0,-30.303053,880.0004,711.17727)"/>
<use xlink:href="#font_4_2" transform="matrix(22.139166,0,0,-22.139166,897.2428,715.33059)"/>
<use xlink:href="#font_0_b" transform="matrix(30.303053,0,0,-30.303053,958.5318,711.45)"/>
<use xlink:href="#font_0_b" transform="matrix(30.303053,0,0,-30.303053,791.03457,749.0861)"/>
<use xlink:href="#font_0_b" transform="matrix(30.303053,0,0,-30.303053,874.79226,749.0861)"/>
<use xlink:href="#font_5_3" transform="matrix(30.303053,0,0,-30.303053,939.1009,753.9603)"/>
<path transform="matrix(2.7777777,0,0,-2.7777777,962.14169,724.2638)" stroke-width=".436" stroke-linecap="butt" stroke-miterlimit="10" stroke-linejoin="miter" fill="none" stroke="#000000" d="M 0 0 L 11.096 0 "/>
<use xlink:href="#font_1_1" transform="matrix(30.303053,0,0,-30.303053,963.74777,748.81338)"/>
<use xlink:href="#font_4_3" transform="matrix(22.139166,0,0,-22.139166,980.7936,753.4317)"/>
<use xlink:href="#font_3_6" transform="matrix(30.303053,0,0,-30.303053,993.17599,703.2556)"/>
<use xlink:href="#font_3_8" transform="matrix(30.303053,0,0,-30.303053,993.17599,757.7727)"/>
<symbol id="font_0_25">
<path d="M .63 .67700007 L .019000002 .67700007 L 0 .45200003 L .025000003 .45200003 C .039 .61300006 .054 .646 .20500002 .646 C .223 .646 .24900003 .646 .259 .64400008 C .28 .64000007 .28 .629 .28 .606 L .28 .079 C .28 .045 .28 .031000002 .17500001 .031000002 L .135 .031000002 L .135 0 C .17600002 .003 .278 .003 .324 .003 C .37 .003 .473 .003 .514 0 L .514 .031000002 L .47400005 .031000002 C .36900003 .031000002 .36900003 .045 .36900003 .079 L .36900003 .606 C .36900003 .62600007 .36900003 .64000007 .387 .64400008 C .398 .646 .425 .646 .444 .646 C .595 .646 .61 .61300006 .624 .45200003 L .64900007 .45200003 L .63 .67700007 Z "/>
</symbol>
<symbol id="font_0_2d">
<path d="M .14400001 .388 L .14400001 .705 L 0 .694 L 0 .663 C .07000001 .663 .07800001 .656 .07800001 .607 L .07800001 .011000001 L .103000018 .011000001 C .104 .012000001 .112 .026 .13900002 .07300001 C .15400002 .05 .19600001 0 .27 0 C .38900004 0 .49300004 .098000008 .49300004 .22700002 C .49300004 .35400004 .395 .45300005 .28100003 .45300005 C .20300001 .45300005 .16000001 .40600003 .14400001 .388 M .14700002 .12500002 L .14700002 .33100004 C .14700002 .35000003 .14700002 .351 .158 .367 C .19700001 .42300005 .252 .43100003 .27600003 .43100003 C .321 .43100003 .35700003 .40500004 .381 .367 C .40700004 .32600004 .41000004 .26900003 .41000004 .22800002 C .41000004 .19100002 .40800003 .13100001 .379 .086 C .358 .055000005 .32000003 .022000002 .266 .022000002 C .22100002 .022000002 .18500002 .046 .16100002 .083000008 C .14700002 .104 .14700002 .107 .14700002 .12500002 Z "/>
</symbol>
<symbol id="font_0_3b">
<path d="M .14400001 .57000008 L .14400001 .63600006 L 0 .625 L 0 .594 C .07100001 .594 .07800001 .58800008 .07800001 .544 L .07800001 .076 C .07800001 .031000004 .067 .031000004 0 .031000004 L 0 0 C .034 .001000002 .08600001 .0029999912 .112 .0029999912 C .13900002 .0029999912 .19000001 .001000002 .22500003 0 L .22500003 .031000004 C .158 .031000004 .14700002 .031000004 .14700002 .076 L .14700002 .244 L .14700002 .25300003 C .15200001 .237 .19400002 .183 .27 .183 C .38900004 .183 .49300004 .28100003 .49300004 .41000004 C .49300004 .53700008 .39600004 .63600006 .284 .63600006 C .20600002 .63600006 .164 .592 .14400001 .57000008 M .14700002 .30800004 L .14700002 .531 C .17600002 .582 .22500003 .61100009 .27600003 .61100009 C .349 .61100009 .41000004 .523 .41000004 .41000004 C .41000004 .289 .34000004 .20500002 .266 .20500002 C .22600001 .20500002 .18800001 .22500001 .16100002 .266 C .14700002 .287 .14700002 .28800003 .14700002 .30800004 Z "/>
</symbol>
<use xlink:href="#font_0_25" transform="matrix(30.303053,0,0,-30.303053,296.17149,801.5112)"/>
<use xlink:href="#font_0_33" transform="matrix(30.303053,0,0,-30.303053,317.92909,801.5112)"/>
<use xlink:href="#font_0_30" transform="matrix(30.303053,0,0,-30.303053,334.65635,801.84457)"/>
<use xlink:href="#font_0_2d" transform="matrix(30.303053,0,0,-30.303053,358.20185,801.84457)"/>
<use xlink:href="#font_0_30" transform="matrix(30.303053,0,0,-30.303053,375.89884,801.84457)"/>
<use xlink:href="#font_0_37" transform="matrix(30.303053,0,0,-30.303053,389.5049,801.5112)"/>
<use xlink:href="#font_0_3a" transform="matrix(30.303053,0,0,-30.303053,397.77766,801.84457)"/>
<use xlink:href="#font_0_42" transform="matrix(30.303053,0,0,-30.303053,411.77763,801.84457)"/>
<use xlink:href="#font_0_3f" transform="matrix(30.303053,0,0,-30.303053,443.80799,801.84457)"/>
<use xlink:href="#font_0_3d" transform="matrix(30.303053,0,0,-30.303053,455.8686,801.5112)"/>
<use xlink:href="#font_0_2c" transform="matrix(30.303053,0,0,-30.303053,468.17167,801.84457)"/>
<use xlink:href="#font_0_39" transform="matrix(30.303053,0,0,-30.303053,483.02015,801.5112)"/>
<use xlink:href="#font_0_3e" transform="matrix(30.303053,0,0,-30.303053,499.89894,801.84457)"/>
<use xlink:href="#font_0_31" transform="matrix(30.303053,0,0,-30.303053,511.83836,801.5112)"/>
<use xlink:href="#font_0_3a" transform="matrix(30.303053,0,0,-30.303053,520.9596,801.84457)"/>
<use xlink:href="#font_0_3d" transform="matrix(30.303053,0,0,-30.303053,536.1111,801.5112)"/>
<use xlink:href="#font_0_38" transform="matrix(30.303053,0,0,-30.303053,548.1111,801.5112)"/>
<use xlink:href="#font_0_38" transform="matrix(30.303053,0,0,-30.303053,583.44448,801.5112)"/>
<use xlink:href="#font_0_2c" transform="matrix(30.303053,0,0,-30.303053,608.9899,801.84457)"/>
<use xlink:href="#font_0_3b" transform="matrix(30.303053,0,0,-30.303053,623.7172,807.39)"/>
<use xlink:href="#font_0_3e" transform="matrix(30.303053,0,0,-30.303053,640.7172,801.84457)"/>
<use xlink:href="#font_0_3f" transform="matrix(30.303053,0,0,-30.303053,662.3233,801.84457)"/>
<use xlink:href="#font_0_33" transform="matrix(30.303053,0,0,-30.303053,674.5051,801.5112)"/>
<use xlink:href="#font_0_30" transform="matrix(30.303053,0,0,-30.303053,691.2324,801.84457)"/>
<use xlink:href="#font_0_30" transform="matrix(30.303053,0,0,-30.303053,714.8082,801.84457)"/>
<use xlink:href="#font_0_37" transform="matrix(30.303053,0,0,-30.303053,728.41427,801.5112)"/>
<use xlink:href="#font_0_37" transform="matrix(30.303053,0,0,-30.303053,736.83847,801.5112)"/>
<use xlink:href="#font_0_34" transform="matrix(30.303053,0,0,-30.303053,745.2627,801.5112)"/>
<use xlink:href="#font_0_3b" transform="matrix(30.303053,0,0,-30.303053,753.5354,807.39)"/>
<use xlink:href="#font_0_3e" transform="matrix(30.303053,0,0,-30.303053,770.5354,801.84457)"/>
<use xlink:href="#font_0_3a" transform="matrix(30.303053,0,0,-30.303053,782.3233,801.84457)"/>
<use xlink:href="#font_0_34" transform="matrix(30.303053,0,0,-30.303053,797.62637,801.5112)"/>
<use xlink:href="#font_0_2f" transform="matrix(30.303053,0,0,-30.303053,806.0808,801.84457)"/>
<use xlink:href="#font_0_3f" transform="matrix(30.303053,0,0,-30.303053,832.5657,801.84457)"/>
<use xlink:href="#font_0_3a" transform="matrix(30.303053,0,0,-30.303053,844.62637,801.84457)"/>
<use xlink:href="#font_0_2c" transform="matrix(30.303053,0,0,-30.303053,870.293,801.84457)"/>
<use xlink:href="#font_0_40" transform="matrix(30.303053,0,0,-30.303053,895.2628,801.84457)"/>
<use xlink:href="#font_0_39" transform="matrix(30.303053,0,0,-30.303053,912.08108,801.5112)"/>
<use xlink:href="#font_0_34" transform="matrix(30.303053,0,0,-30.303053,928.95986,801.5112)"/>
<use xlink:href="#font_0_3f" transform="matrix(30.303053,0,0,-30.303053,936.9598,801.84457)"/>
<use xlink:href="#font_0_3e" transform="matrix(30.303053,0,0,-30.303053,959.2932,801.84457)"/>
<use xlink:href="#font_0_3b" transform="matrix(30.303053,0,0,-30.303053,971.0811,807.39)"/>
<use xlink:href="#font_0_33" transform="matrix(30.303053,0,0,-30.303053,988.05087,801.5112)"/>
<use xlink:href="#font_0_30" transform="matrix(30.303053,0,0,-30.303053,1004.77816,801.84457)"/>
<use xlink:href="#font_0_3d" transform="matrix(30.303053,0,0,-30.303053,1018.23269,801.5112)"/>
<use xlink:href="#font_0_30" transform="matrix(30.303053,0,0,-30.303053,1030.1115,801.84457)"/>
<symbol id="font_1_11">
<path d="M .458 .411 L .374 .61 C .37100003 .61800006 .36900003 .62200006 .36900003 .623 C .36900003 .629 .386 .648 .428 .652 C .43800003 .65300008 .448 .65400007 .448 .671 C .448 .683 .43600003 .683 .433 .683 C .39200003 .683 .349 .68 .307 .68 C .282 .68 .22000002 .683 .19500003 .683 C .18900001 .683 .17700002 .683 .17700002 .66300007 C .17700002 .652 .18700002 .652 .20000002 .652 C .26 .652 .266 .642 .275 .62 L .393 .34100003 L .18200001 .11400001 L .16900002 .10300001 C .12 .05 .073 .034 .022000002 .031000002 C .0090000019 .030000002 0 .030000002 0 .011000001 C 0 .010000001 0 0 .013000002 0 C .042999999 0 .076000008 .003 .107 .003 C .14400001 .003 .18300002 0 .21900001 0 C .22500001 0 .237 0 .237 .020000002 C .237 .030000002 .22700002 .031000002 .22500001 .031000002 C .21600002 .032 .18500002 .034 .18500002 .062000004 C .18500002 .078 .20000002 .094000007 .21200001 .10700001 L .314 .215 L .404 .31300003 L .505 .074 C .509 .063 .51 .062000004 .51 .060000004 C .51 .052 .491 .035 .45200003 .031000002 C .441 .030000002 .432 .029000001 .432 .012 C .432 0 .44300003 0 .44700004 0 C .47500003 0 .545 .003 .573 .003 C .598 .003 .65900006 0 .684 0 C .69100007 0 .703 0 .703 .019000002 C .703 .031000002 .693 .031000002 .685 .031000002 C .61800006 .032 .616 .035 .59900006 .075 C .56 .16800002 .49300004 .324 .47 .384 C .538 .45400004 .643 .573 .675 .601 C .704 .625 .74200007 .64900007 .80200007 .652 C .81500008 .65300008 .824 .65300008 .824 .67200008 C .824 .67300006 .824 .683 .81100007 .683 C .781 .683 .748 .68 .717 .68 C .68 .68 .642 .683 .606 .683 C .6 .683 .587 .683 .587 .66300007 C .587 .656 .592 .65300008 .59900006 .652 C .60800006 .651 .639 .64900007 .639 .62100008 C .639 .60700008 .628 .59400007 .62 .58500006 L .458 .411 Z "/>
</symbol>
<use xlink:href="#font_1_11" transform="matrix(30.303053,0,0,-30.303053,629.0515,880.64187)"/>
<use xlink:href="#font_0_16" transform="matrix(30.303053,0,0,-30.303053,665.83309,876.6115)"/>
<use xlink:href="#font_0_c" transform="matrix(30.303053,0,0,-30.303053,702.1386,860.1417)"/>
<path transform="matrix(2.7777777,0,0,-2.7777777,699.44168,873.06399)" stroke-width=".436" stroke-linecap="butt" stroke-miterlimit="10" stroke-linejoin="miter" fill="none" stroke="#000000" d="M 0 0 L 5.455 0 "/>
<symbol id="font_1_1d">
<path d="M .059000009 .07000001 C .056 .055000005 .050000006 .032 .050000006 .027000003 C .050000006 .009000001 .064 0 .079 0 C .091000009 0 .10900001 .008000001 .11600001 .028 C .118 .032 .15200001 .16800002 .156 .18600002 C .164 .21900001 .18200001 .28900004 .18800001 .316 C .19200002 .32900004 .22000002 .37600003 .244 .39800004 C .252 .40500004 .281 .43100003 .324 .43100003 C .35 .43100003 .365 .41900004 .366 .41900004 C .336 .41400004 .314 .39000003 .314 .36400003 C .314 .34800003 .325 .32900004 .352 .32900004 C .379 .32900004 .407 .35200004 .407 .388 C .407 .42300005 .375 .45300005 .324 .45300005 C .259 .45300005 .21500002 .404 .19600001 .37600003 C .18800001 .42100004 .15200001 .45300005 .105000007 .45300005 C .059000009 .45300005 .040000008 .41400004 .031000002 .39600004 C .013000002 .36200003 0 .30200003 0 .29900003 C 0 .28900004 .01 .28900004 .012 .28900004 C .022000002 .28900004 .023 .29000003 .029000001 .31200005 C .046000005 .38300003 .06600001 .43100003 .10200001 .43100003 C .119 .43100003 .133 .42300005 .133 .38500003 C .133 .36400003 .13000001 .35300002 .11700001 .30100004 L .059000009 .07000001 Z "/>
</symbol>
<use xlink:href="#font_1_1d" transform="matrix(30.303053,0,0,-30.303053,700.6399,901.76119)"/>
<use xlink:href="#font_1_c" transform="matrix(30.303053,0,0,-30.303053,719.1866,880.64187)"/>
<use xlink:href="#font_0_4" transform="matrix(30.303053,0,0,-30.303053,753.6167,888.2176)"/>
<use xlink:href="#font_1_11" transform="matrix(30.303053,0,0,-30.303053,763.2182,880.64187)"/>
<symbol id="font_6_2">
<path d="M .23500002 .43300004 C .24000001 .446 .24400002 .453 .24400002 .463 C .24400002 .496 .21400002 .518 .186 .518 C .14600002 .518 .135 .48300005 .13100001 .46900005 L .0040000008 .038000004 C 0 .026 0 .023000002 0 .022 C 0 .013 .006000001 .011 .016000003 .008000001 C .034 0 .036 0 .038000004 0 C .041 0 .047000007 0 .054000006 .017 L .23500002 .43300004 Z "/>
</symbol>
<use xlink:href="#font_6_2" transform="matrix(22.139166,0,0,-22.139166,790.5476,867.2202)"/>
<symbol id="font_5_1">
<path d="M .57600006 0 C .59300008 0 .611 0 .611 .019999996 C .611 .040000008 .59300008 .040000008 .57600006 .040000008 L .035000005 .040000008 C .018 .040000008 0 .040000008 0 .019999996 C 0 0 .018 0 .035000005 0 L .57600006 0 Z "/>
</symbol>
<use xlink:href="#font_5_1" transform="matrix(30.303053,0,0,-30.303053,806.89859,873.6721)"/>
<symbol id="font_1_d">
<path d="M .691 .45800004 C .691 .619 .585 .72700008 .43600003 .72700008 C .22000003 .72700008 0 .5 0 .26700003 C 0 .101 .11200001 0 .256 0 C .46800003 0 .691 .21900001 .691 .45800004 M .26200003 .026000003 C .16300002 .026000003 .093 .107 .093 .23900001 C .093 .28300003 .107 .42900003 .18400002 .54600009 C .25300003 .65000006 .351 .702 .43000005 .702 C .512 .702 .602 .646 .602 .49700005 C .602 .42500005 .575 .26900003 .47600005 .14600002 C .42800004 .085 .34600003 .026000003 .26200003 .026000003 Z "/>
</symbol>
<use xlink:href="#font_1_d" transform="matrix(30.303053,0,0,-30.303053,836.171,881.30856)"/>
<symbol id="font_0_8">
<path d="M .26500003 0 L .26500003 .058 L 0 .058 L 0 0 L .26500003 0 Z "/>
</symbol>
<symbol id="font_0_e">
<path d="M .24800003 .37400005 C .33 .40100003 .388 .47100006 .388 .55 C .388 .632 .3 .688 .204 .688 C .10300001 .688 .027000003 .628 .027000003 .55200007 C .027000003 .519 .049000004 .5 .078 .5 C .109000008 .5 .12900001 .522 .12900001 .55100008 C .12900001 .6010001 .082 .6010001 .067 .6010001 C .098 .65000006 .164 .66300007 .20000002 .66300007 C .24100003 .66300007 .29600004 .64100006 .29600004 .55100008 C .29600004 .53900006 .29400004 .48100005 .268 .43700005 C .238 .38900004 .204 .38600005 .17900002 .38500003 C .171 .38400004 .14700002 .38200004 .14000002 .38200004 C .132 .38100005 .125 .38000003 .125 .37000004 C .125 .35900004 .132 .35900004 .14900002 .35900004 L .19300002 .35900004 C .275 .35900004 .312 .29100005 .312 .193 C .312 .057000005 .24300003 .028 .199 .028 C .15600002 .028 .081 .045 .046000005 .104 C .081 .09900001 .11200001 .12100001 .11200001 .15900001 C .11200001 .19500001 .085 .215 .056 .215 C .031999999 .215 0 .201 0 .157 C 0 .06600001 .093 0 .20200002 0 C .32400004 0 .41500003 .091000009 .41500003 .193 C .41500003 .27500005 .35200004 .35300005 .24800003 .37400005 Z "/>
</symbol>
<symbol id="font_0_10">
<path d="M .39900003 .223 C .39900003 .34200005 .317 .44200004 .209 .44200004 C .16100002 .44200004 .118000019 .42600004 .082 .39100004 L .082 .586 C .10200001 .58000007 .135 .573 .16700001 .573 C .29 .573 .36 .66400006 .36 .67700007 C .36 .683 .357 .688 .35 .688 C .349 .688 .347 .688 .342 .68500009 C .322 .67600008 .273 .656 .20600002 .656 C .16600001 .656 .120000008 .66300007 .073 .6840001 C .065 .68700006 .06300001 .68700006 .061000009 .68700006 C .051000004 .68700006 .051000004 .679 .051000004 .66300007 L .051000004 .36700005 C .051000004 .34900005 .051000004 .34100003 .065 .34100003 C .07200001 .34100003 .074 .34400005 .07800001 .35000003 C .08900002 .36600004 .12600002 .42000006 .207 .42000006 C .259 .42000006 .284 .37400005 .292 .35600005 C .308 .31900005 .31 .28000004 .31 .23 C .31 .19500001 .31 .135 .286 .093 C .262 .054000006 .22500001 .028 .17900002 .028 C .106000009 .028 .049000008 .08100001 .032 .14000002 C .035 .13900002 .038000008 .13800001 .049000008 .13800001 C .082 .13800001 .09900001 .163 .09900001 .187 C .09900001 .21100001 .082 .23600002 .049000008 .23600002 C .035 .23600002 0 .22900002 0 .18300002 C 0 .097 .069000009 0 .18100001 0 C .297 0 .39900003 .096 .39900003 .223 Z "/>
</symbol>
<use xlink:href="#font_0_5" transform="matrix(30.303053,0,0,-30.303053,860.369,888.2176)"/>
<use xlink:href="#font_0_47" transform="matrix(30.303053,0,0,-30.303053,880.5205,872.91458)"/>
<use xlink:href="#font_0_47" transform="matrix(30.303053,0,0,-30.303053,910.82357,872.91458)"/>
<use xlink:href="#font_0_8" transform="matrix(30.303053,0,0,-30.303053,941.45986,874.97518)"/>
<use xlink:href="#font_0_4" transform="matrix(30.303053,0,0,-30.303053,964.3387,888.2176)"/>
<use xlink:href="#font_0_c" transform="matrix(30.303053,0,0,-30.303053,975.82357,880.64187)"/>
<use xlink:href="#font_0_e" transform="matrix(30.303053,0,0,-30.303053,989.55087,881.30856)"/>
<use xlink:href="#font_0_5" transform="matrix(30.303053,0,0,-30.303053,1005.157,888.2176)"/>
<use xlink:href="#font_0_10" transform="matrix(30.303053,0,0,-30.303053,820.71237,2001.3223)"/>
</g>
</svg>
